<?xml version="1.0" standalone="no"?>
<!DOCTYPE svg PUBLIC "-//W3C//DTD SVG 20010904//EN"
 "http://www.w3.org/TR/2001/REC-SVG-20010904/DTD/svg10.dtd">
<svg version="1.0" xmlns="http://www.w3.org/2000/svg"
 width="300.000000pt" height="300.000000pt" viewBox="0 0 300.000000 300.000000"
 preserveAspectRatio="xMidYMid meet">

<g transform="translate(0.000000,300.000000) scale(0.100000,-0.100000)"
fill="#000000" stroke="none">
<path d="M1195 2000 c-3 -5 -15 -10 -26 -10 -10 0 -19 -4 -19 -10 0 -5 -10
-10 -23 -10 -12 0 -31 -11 -41 -25 -10 -14 -23 -25 -28 -25 -17 0 -98 -95 -98
-115 0 -8 -4 -15 -10 -15 -5 0 -10 -6 -10 -14 0 -7 -7 -27 -15 -42 -17 -33
-20 -80 -6 -89 6 -3 13 10 17 30 3 19 10 35 15 35 5 0 9 9 9 20 0 19 6 29 38
65 6 7 12 17 12 20 0 12 64 65 78 65 6 0 12 5 12 10 0 6 11 10 25 10 14 0 25
5 25 10 0 6 37 10 90 10 53 0 90 -4 90 -10 0 -5 11 -10 25 -10 14 0 25 -4 25
-10 0 -5 7 -10 15 -10 8 0 25 -11 39 -25 14 -14 30 -25 36 -25 5 0 10 -7 10
-15 0 -8 5 -15 10 -15 6 0 10 -9 10 -20 0 -11 4 -20 9 -20 5 0 12 -11 15 -25
4 -14 11 -25 16 -25 6 0 10 -11 10 -25 0 -14 5 -25 10 -25 6 0 10 -20 10 -45
0 -25 4 -45 10 -45 5 0 13 -12 16 -26 9 -35 24 -12 24 39 0 30 4 37 20 37 11
0 20 5 20 10 0 6 11 10 25 10 14 0 25 5 25 10 0 6 7 10 16 10 9 0 32 16 51 35
l35 35 -50 0 c-32 0 -56 6 -66 15 -8 8 -24 15 -35 15 -15 0 -21 6 -21 21 0 22
22 49 39 49 6 0 11 16 11 35 l0 35 -70 0 c-40 0 -70 4 -70 10 0 6 -16 10 -35
10 -19 0 -35 4 -35 9 0 5 -11 12 -25 15 -14 4 -25 11 -25 16 0 6 -11 10 -25
10 -14 0 -25 5 -25 10 0 6 -9 10 -19 10 -11 0 -23 5 -26 10 -3 6 -35 10 -70
10 -35 0 -67 -4 -70 -10z"/>
<path d="M1150 1860 c0 -5 -9 -10 -21 -10 -19 0 -49 -21 -49 -35 0 -10 -28
-35 -39 -35 -6 0 -11 -9 -11 -19 0 -11 -3 -21 -8 -23 -4 -1 -20 -32 -35 -68
-22 -54 -27 -80 -27 -152 0 -52 -4 -88 -10 -88 -5 0 -10 -16 -10 -35 0 -19 5
-35 10 -35 6 0 10 -7 10 -15 0 -9 11 -26 25 -39 14 -13 25 -26 25 -30 0 -9 47
-56 55 -56 10 0 35 -28 35 -39 0 -6 9 -11 20 -11 11 0 20 -4 20 -10 0 -5 7
-10 15 -10 8 0 15 -4 15 -10 0 -5 11 -12 25 -16 14 -3 25 -10 25 -15 0 -5 16
-9 35 -9 19 0 35 -4 35 -10 0 -15 39 -12 56 4 8 8 14 24 14 35 0 12 5 21 10
21 6 0 10 8 10 18 0 9 12 49 25 87 16 46 25 92 25 133 0 34 4 62 10 62 6 0 10
27 10 60 0 33 -4 60 -10 60 -6 0 -10 27 -10 60 0 33 -4 60 -9 60 -5 0 -11 12
-14 28 -3 15 -15 37 -26 49 -12 12 -21 25 -21 28 0 10 -28 35 -39 35 -6 0 -11
3 -11 8 0 4 -12 13 -27 20 -32 14 -133 16 -133 2z m180 -140 c0 -5 7 -10 15
-10 9 0 15 -9 15 -25 0 -14 5 -25 10 -25 6 0 10 -9 10 -20 0 -11 -4 -20 -10
-20 -5 0 -10 -11 -10 -25 0 -16 -6 -25 -15 -25 -8 0 -15 -4 -15 -10 0 -5 -9
-10 -20 -10 -11 0 -20 5 -20 10 0 6 -5 10 -11 10 -20 0 -38 34 -38 70 0 36 18
70 38 70 6 0 11 5 11 10 0 6 9 10 20 10 11 0 20 -4 20 -10z"/>
<path d="M2711 1402 c-10 -7 -10 -14 -2 -30 6 -11 11 -37 11 -57 0 -33 2 -36
22 -29 25 7 68 48 68 64 0 5 5 10 11 10 13 0 43 29 37 36 -10 10 -134 15 -147
6z"/>
<path d="M1600 891 c0 -11 -7 -26 -15 -35 -24 -24 -17 -36 20 -36 19 0 35 -4
35 -10 0 -5 9 -10 21 -10 11 0 27 -6 34 -12 33 -30 45 -38 55 -38 5 0 10 -5
10 -11 0 -6 6 -17 13 -24 29 -33 37 -45 37 -55 0 -5 5 -10 10 -10 6 0 10 -25
10 -55 l0 -55 35 0 c19 0 35 5 35 10 0 6 18 10 40 10 22 0 57 7 77 15 19 8 44
15 54 15 11 0 19 5 19 10 0 6 9 10 20 10 11 0 20 3 20 6 0 10 -26 31 -48 38
-12 4 -22 12 -22 17 0 5 -11 9 -25 9 -14 0 -25 5 -25 10 0 6 -9 10 -20 10 -11
0 -20 5 -20 10 0 6 -9 10 -20 10 -11 0 -23 7 -26 15 -4 8 -17 15 -30 15 -13 0
-24 5 -24 10 0 6 -9 10 -20 10 -11 0 -20 4 -20 9 0 5 -11 12 -25 15 -14 4 -25
11 -25 16 0 6 -9 10 -20 10 -11 0 -20 5 -20 10 0 6 -5 10 -11 10 -6 0 -17 6
-24 13 -33 29 -45 37 -55 37 -5 0 -10 5 -10 10 0 6 -9 10 -20 10 -13 0 -20 -7
-20 -19z"/>
</g>
</svg>
